<svg xmlns="http://www.w3.org/2000/svg" width="44" height="39" viewBox="0 0 44 39">
    <path fill="#000" fill-rule="evenodd" d="M20.014.098l1.134 5.243H17l5.612 10.664-1.464-7.44h3.427V.358c1.397.385 3.009 1.131 4.208 2.577 1.77 2.135 2.276 5.33 1.502 9.499a.848.848 0 0 0 .49.93c.01.005 1.024.52.219 2.548-.926 2.334-1.657 2.188-1.969 2.126a.848.848 0 0 0-.956.532c-.035.093-.851 2.285-.851 4.399 0 4.08 2.627 6.804 7.81 8.095 6.483 1.615 8.144 3.935 8.358 7.32H0C.213 35 1.874 32.68 8.359 31.065c5.182-1.29 7.81-4.014 7.81-8.095 0-2.114-.817-4.306-.852-4.399a.848.848 0 0 0-.957-.532c-.312.062-1.042.208-1.968-2.126-.78-1.966.132-2.502.219-2.547a.848.848 0 0 0 .49-.931c-.774-4.168-.269-7.364 1.502-9.5C16.169 1.049 18.439.354 20.014.099zm.981-.093L22.611 0l.054.005h-1.67z"/>
</svg>
