<svg xmlns="http://www.w3.org/2000/svg" width="44" height="40" viewBox="0 0 44 40">
    <path fill="#000" fill-rule="evenodd" d="M35.51 32.38c6.566 1.68 8.249 4.095 8.465 7.62H.025c.216-3.525 1.899-5.94 8.466-7.62 5.256-1.343 7.92-4.178 7.92-8.424 0-2.197-.826-4.478-.861-4.574a.866.866 0 0 0-.985-.557c-.312.065-1.043.216-1.98-2.21-.792-2.049.131-2.609.219-2.656a.885.885 0 0 0 .5-.964 22.13 22.13 0 0 1-.305-2.512l17.76 2.087c-.023.143-.036.279-.062.425-.073.4.134.798.5.964.01.005 1.036.541.218 2.657-.938 2.425-1.67 2.274-1.98 2.21a.868.868 0 0 0-.985.556c-.035.096-.861 2.377-.861 4.574 0 4.246 2.664 7.08 7.92 8.425zM27.977 1.94c.412.32.806.687 1.163 1.122.248.303.468.631.668.976l-4.501-.5 2.66-1.59.01-.008zm-10.523.728l-2.018-.223C17.42.535 20.106.112 21.388.025l-3.933 2.643zm13.475 4.86L13.56 5.443c.17-.483.368-.942.61-1.364l16.426 1.822c.15.51.258 1.055.333 1.627zM12.966 8.703c.023-.535.069-1.049.148-1.537l17.925 2.152c0 .483-.02.983-.064 1.5L12.966 8.704zm9.454-5.484l-2.263-.251L24.2.25a10.34 10.34 0 0 1 2.067.668l-3.847 2.3z"/>
</svg>
