<svg xmlns="http://www.w3.org/2000/svg" width="44" height="39" viewBox="0 0 44 39">
    <path fill="#000" fill-rule="evenodd" d="M40.857 3.294C39.095 1.516 36.378-.036 32.528 0c-3.17.226-5.322 1.295-6.89 2.717l.064 15.314h-4.595l1.648 13.525-8.497-19.378h6.479l-1.831-9.022C17.14 1.337 14.628-.038 10.838 0 5.156.364 1.761 3.822.529 8.151c-1.5 5.277.429 11.096 2.805 14.407 2.453 3.417 6.02 6.256 9.153 8.975 3.326 2.886 5.427 3.988 9.649 7.467 4.188-3.844 10.77-7.951 16.244-13.64 2.482-2.688 4.65-5.482 5.359-10.128.756-4.917-.108-9.14-2.882-11.938z"/>
</svg>
